<svg width="121" height="69" viewBox="0 0 121 69" fill="none" xmlns="http://www.w3.org/2000/svg">
<path d="M103.002 0.136017C100.682 0.358597 97.5801 1.17473 95.6446 2.06506C94.7637 2.47311 91.4386 4.36505 89.255 5.7129C82.1706 10.0409 73.9819 16.1371 68.3492 21.2812C67.5675 21.986 66.8107 22.6414 66.6742 22.728C66.4137 22.8887 66.24 22.7403 63.4856 19.9828L60.57 17.0645L60.297 15.7909C59.8255 13.5774 59.3417 12.4892 58.0389 10.7704C55.6692 7.64193 51.4384 5.83656 47.5302 6.30645C45.9917 6.49194 44.6146 6.91236 43.2622 7.6172C41.9967 8.28495 40.9917 9.03925 41.1406 9.18763C41.2026 9.24946 41.5252 9.08871 41.9098 8.77957C42.8652 8.02527 44.6146 7.19677 45.9793 6.83817C47.5922 6.41774 49.7759 6.39301 51.3764 6.78871C56.5377 8.03763 60.1729 12.5882 60.2846 17.9301C60.297 19.043 60.3094 19.0677 60.3715 18.3134C60.4087 17.8683 60.5079 17.4973 60.57 17.4726C60.6444 17.4478 61.972 18.7091 63.5476 20.2796L66.4013 23.1237L65.7809 23.7419C65.4459 24.0758 65.1978 24.3849 65.235 24.422C65.2722 24.4468 65.5452 24.2366 65.8305 23.9398C66.1283 23.6306 66.4385 23.4204 66.5377 23.4575C66.637 23.4946 66.6742 23.4328 66.637 23.2844C66.5998 23.1237 66.9596 22.728 67.977 21.8129C74.5651 15.9269 81.5998 10.6468 88.6346 6.28172C94.9002 2.41129 97.1831 1.33548 100.657 0.630646C102.258 0.309135 105.198 0.0123672 105.012 0.197845C104.975 0.234947 104.305 0.321503 103.535 0.383331C99.9374 0.66774 96.8605 1.61989 93.7463 3.42527C92.9647 3.87043 92.0838 4.37742 91.7736 4.55054C90.322 5.36666 85.6445 8.33441 83.5229 9.79355C78.2251 13.429 73.6718 16.978 68.7834 21.3183L66.699 23.1608L67.0588 23.5441C67.2573 23.7543 67.6171 24.15 67.8529 24.4097L68.2995 24.8919L70.1358 24.0634C77.7909 20.5887 86.8604 17.7075 94.7141 16.2607C95.6446 16.0876 96.4138 15.9392 96.4262 15.9145C96.5751 15.7043 98.3865 12.7366 98.9697 11.7473C100.384 9.37312 102.568 5.40376 103.846 2.88118C104.54 1.49623 105.161 0.370964 105.21 0.370964C105.409 0.370964 101.513 7.70376 99.4908 11.129C97.3443 14.7645 96.4883 16.0753 96.2029 16.1247C96.054 16.1618 94.9126 16.3844 93.6719 16.6317C87.853 17.757 81.4013 19.6489 75.5204 21.9489C73.2003 22.8516 69.4906 24.4591 68.7214 24.8796L68.2995 25.1145L67.5551 24.2984C67.1457 23.8532 66.7735 23.5194 66.7362 23.5564C66.699 23.5935 67.0092 23.9645 67.4062 24.3849C67.8157 24.8177 68.6966 25.7946 69.3665 26.5613C70.0365 27.328 70.6196 27.9339 70.6445 27.8968C70.6817 27.8597 70.3839 27.464 69.9993 27.0188C69.3789 26.3263 69.3045 26.178 69.4534 26.0296C69.838 25.6586 77.4311 23.3586 82.0341 22.2086C86.0416 21.2194 93.4609 19.6984 93.6098 19.8468C93.6843 19.9086 93.4982 19.9457 90.9671 20.4156C86.5006 21.2194 81.2773 22.4559 76.5874 23.8161C73.7338 24.6446 69.6643 25.9554 69.5154 26.0914C69.4658 26.1532 69.5402 26.3263 69.6891 26.4871C71.8107 28.7005 77.2946 35.6995 80.1482 39.8419L81.4882 41.7833L82.3195 41.4742C82.7661 41.3011 83.2128 41.1156 83.2996 41.0785C83.4609 40.9796 82.4807 39.3349 81.2152 37.5667C80.8802 37.1091 80.6073 36.6887 80.6073 36.6516C80.6073 36.6145 81.2152 35.8973 81.9472 35.0812C85.6073 30.9634 89.7388 25.7204 92.8902 21.1699C93.3245 20.5269 93.7091 20.0817 93.7339 20.1559C93.7587 20.2301 93.9324 20.1312 94.1185 19.9086C94.4039 19.5747 94.5652 19.5005 95.5329 19.3521C99.7017 18.6844 105.037 18.1156 109.64 17.8559C111.972 17.7199 114.714 18.1032 117.27 18.9194C118.473 19.3027 120.235 20.0323 120.148 20.1064C120.136 20.1312 119.578 19.921 118.92 19.6613C114.987 18.0909 111.985 17.7446 106.228 18.2269C101.699 18.6102 94.5404 19.5376 94.3915 19.7602C90.3716 25.6091 86.5751 30.5059 82.3691 35.2667L81.0912 36.7258L81.4634 37.1957C81.7611 37.5667 83.2624 39.8667 83.7711 40.7323C83.8827 40.9301 84.0564 40.8806 85.6321 40.25C96.0912 36.0333 105.471 30.9511 114.478 24.6323C116.476 23.2226 120.21 20.428 120.335 20.2301C120.409 20.1312 120.434 20.1435 120.434 20.2425C120.434 20.4156 118.263 22.0973 115.409 24.1376C106.166 30.7409 96.1657 36.1941 85.5205 40.4355C84.4535 40.8683 83.8827 41.029 83.7959 40.9425C83.7214 40.8683 83.6098 40.893 83.4733 41.0414C83.3616 41.1651 82.853 41.4247 82.3443 41.5978L81.4262 41.9317L81.1904 41.6473L80.9671 41.3629L81.0539 41.672C81.0912 41.8452 80.446 41.0043 79.6147 39.8172C76.9968 36.0952 73.7958 31.9403 71.1283 28.8118C69.503 26.8952 66.5501 23.6183 66.4633 23.6183C66.3268 23.6183 64.7263 25.3247 63.9075 26.3387C62.3069 28.3048 60.7064 30.778 59.5774 33.0038C58.771 34.6237 58.0141 36.4785 58.1134 36.6516C58.2995 36.9484 61.5501 41.2145 62.5799 42.5005C65.0365 45.5425 65.7685 46.371 66.0166 46.371C66.7362 46.371 73.4857 44.4543 77.8405 43.0199C79.4907 42.4758 80.9051 42.0677 80.9795 42.1048C81.0539 42.1543 81.6743 41.9812 82.3443 41.7339C83.0267 41.4742 83.647 41.3011 83.7463 41.3382C84.0812 41.4618 86.1284 45.6167 87.2823 48.5349C89.4039 53.8769 90.9671 61.7414 90.8927 66.6382C90.8679 67.5903 90.8555 67.5161 90.7686 66.0323C90.3468 58.9839 89.2302 53.8274 86.8232 47.7312C86.2028 46.1855 83.8579 41.4247 83.709 41.4247C83.647 41.4247 83.0515 41.6226 82.3815 41.8699C77.3442 43.7 69.8256 46 66.7983 46.6183C66.1531 46.7419 66.0911 46.779 66.24 46.9645C66.6742 47.521 69.4534 50.5876 71.302 52.529L73.374 54.7177L74.4782 55.0763C80.8182 57.1167 86.8604 61.7414 90.3344 67.1823C90.992 68.221 90.657 67.9242 89.9001 66.7989C87.8282 63.7323 84.8505 60.814 81.6247 58.6871C79.4534 57.2651 76.3393 55.7688 74.1184 55.0763C73.4484 54.8661 73.2623 54.7177 71.513 52.9371C69.7015 51.0823 66.0787 47.1005 65.9918 46.8532C65.967 46.7914 66.0787 46.6925 66.24 46.6183C66.5253 46.4946 66.5253 46.4946 66.1903 46.5317C65.9546 46.5441 65.7313 46.4328 65.4211 46.136C64.9372 45.6661 64.8008 45.7403 65.2474 46.2102C65.4459 46.4204 65.4831 46.5317 65.3839 46.6306C65.1978 46.8161 63.2499 47.2613 63.0017 47.1747C62.7536 47.1005 59.565 43.0941 57.3317 40.0645C55.3466 37.3688 51.3267 31.3715 49.7511 28.75C47.4682 24.9785 44.6766 19.9457 44.7758 19.8344C44.8131 19.8097 45.024 20.1312 45.2473 20.5516C48.1381 26.0296 52.0215 32.336 55.756 37.6285C58.1506 41.0414 62.8653 47.1129 63.1134 47.1129C63.3243 47.1129 65.2598 46.6306 65.3219 46.5565C65.3715 46.5194 65.3467 46.4452 65.2722 46.3957C64.838 46.0866 60.4459 40.5962 58.4111 37.7892L57.5427 36.5898L58.0389 35.3903C59.7387 31.3097 62.3069 27.2785 65.0241 24.3973C65.6072 23.779 66.0911 23.2226 66.0911 23.1608C66.0911 23.0247 60.7561 17.5591 60.632 17.5591C60.5824 17.5591 60.5079 18.0785 60.4707 18.6968C60.359 20.7 59.7015 22.6909 58.6097 24.3973C58.0638 25.2382 56.5501 26.8581 55.8429 27.3403L55.3342 27.6866L54.1307 26.6973C51.7362 24.7188 48.3242 22.1097 45.8428 20.3538C44.9992 19.7602 44.7014 19.4758 45.0488 19.6118C45.1605 19.6489 45.2473 19.6613 45.2473 19.6242C45.2473 19.5253 39.6642 15.828 39.5277 15.828C39.4656 15.828 39.416 15.9145 39.416 16.0134C39.416 16.1124 39.4781 16.1989 39.5401 16.1989C39.6145 16.1989 40.6939 16.8667 41.9346 17.6828L44.1927 19.1667L44.8131 20.3661C49.0935 28.6387 54.8751 37.4677 61.029 45.1468L62.8777 47.4591L63.9571 47.2118C64.5526 47.0882 65.1854 46.9522 65.3591 46.9151C65.6444 46.8532 65.8678 47.0634 67.5923 48.9801C68.6469 50.1672 70.2847 51.9231 71.24 52.9C72.1953 53.8769 73.0142 54.7301 73.0514 54.7919C73.0886 54.8538 73.5849 55.064 74.168 55.2618C78.6966 56.8075 82.4932 59.0704 85.7438 62.1989C87.6917 64.0661 89.3666 66.1435 90.5329 68.1097C90.8307 68.5919 91.0788 69 91.0788 69C91.0912 69 91.054 67.7882 91.0168 66.3167C90.8307 60.2575 89.6148 54.1613 87.4684 48.5968C86.7488 46.7296 85.3716 43.7247 84.5527 42.2409C84.2922 41.771 84.0937 41.3258 84.1185 41.264C84.1309 41.2022 85.2103 40.7199 86.5006 40.2005C92.6917 37.678 97.5429 35.3285 103.126 32.1753C109.007 28.8489 115.496 24.5086 120.521 20.5392L120.918 20.2301L119.838 19.7478C118.3 19.0554 116.513 18.4866 114.665 18.1032C113.225 17.7941 112.791 17.7694 110.57 17.7694C105.818 17.7694 97.0094 18.8081 89.7637 20.2301C83.4857 21.4543 77.245 23.0866 71.2152 25.0651C69.1184 25.7575 69.0812 25.7699 68.833 25.5473C68.6842 25.4113 68.5725 25.2629 68.5725 25.2011C68.5725 25.1392 69.0067 24.8919 69.5402 24.657C77.4063 21.0339 85.6197 18.3629 94.0069 16.6935C95.4088 16.4091 96.6123 16.1247 96.6868 16.0382C96.9225 15.7909 100.086 10.4737 101.451 8.03763C102.158 6.77634 103.399 4.45161 104.205 2.86881L105.669 0L104.888 0.0123672C104.466 0.0247269 103.622 0.0741882 103.002 0.136017Z" fill="#322449"/>
<path d="M46.4882 6.85055C44.8629 7.20915 43.2996 7.91399 42.0589 8.84141L41.4385 9.29894L40.6073 12.4027C40.1482 14.1215 39.776 15.5807 39.7884 15.6549C39.7884 15.729 40.7065 16.3844 41.8355 17.114C45.5452 19.5253 50.1234 22.8764 53.647 25.7452C54.5403 26.4747 55.3468 27.0807 55.4212 27.0807C55.719 27.0807 57.9647 24.657 58.4733 23.8038C59.6892 21.714 60.0614 20.3167 60.0614 17.9301C60.0739 16.4215 60.0242 15.9764 59.7885 15.1479C58.5602 10.8941 55.2475 7.74087 51.0664 6.86292C50.0242 6.64034 47.4683 6.64034 46.4882 6.85055ZM47.9398 11.4011C47.8405 11.4629 47.8529 11.5 47.9894 11.5C48.1011 11.5 48.4361 11.6731 48.7338 11.8957C49.0316 12.1059 49.1929 12.1801 49.0936 12.0565C48.9944 11.9328 48.7462 11.735 48.5353 11.5989C48.3368 11.4753 48.2376 11.3764 48.3244 11.3764C48.4113 11.3764 48.7214 11.5989 49.0068 11.8833C49.2922 12.1554 49.4534 12.3532 49.3542 12.3038C49.2425 12.2419 49.2053 12.2667 49.2425 12.378C49.2798 12.4769 49.3542 12.5387 49.4162 12.5264C49.4783 12.514 49.5279 12.6747 49.5279 12.885C49.5279 13.2436 49.2053 13.6145 48.9199 13.6022C48.8455 13.5898 48.9324 13.5032 49.1309 13.4043C49.317 13.3054 49.4659 13.1694 49.4659 13.0952C49.4659 13.021 49.379 13.0581 49.2673 13.157C49.1681 13.2683 48.9324 13.3919 48.7587 13.429C48.585 13.4785 48.5105 13.5403 48.5726 13.5898C48.647 13.6269 48.1631 13.6516 47.5055 13.6516C46.1036 13.6269 45.9671 13.528 46.116 12.7118C46.2276 12.1554 46.8108 11.5 47.2078 11.5C47.3691 11.5 47.3815 11.4753 47.245 11.3887C47.1457 11.3269 47.2574 11.2898 47.58 11.3022C47.8654 11.3022 48.0142 11.3516 47.9398 11.4011ZM46.6867 11.6113C46.4882 11.7473 46.2524 11.9823 46.1656 12.143C46.0663 12.3038 46.0043 12.3532 45.9919 12.2667C45.9919 12.0565 46.6619 11.3764 46.8852 11.3764C46.972 11.3764 46.8852 11.4876 46.6867 11.6113ZM45.9547 12.885C45.9175 12.9715 45.8926 12.9097 45.8926 12.7366C45.8926 12.5635 45.9175 12.5016 45.9547 12.5758C45.9795 12.6624 45.9795 12.8108 45.9547 12.885ZM47.8281 13.8124C47.7041 13.8371 47.4807 13.8371 47.3319 13.8124C47.1706 13.7876 47.2698 13.7629 47.5428 13.7629C47.8157 13.7506 47.9398 13.7753 47.8281 13.8124Z" fill="#322449"/>
<path d="M46.328 13.3672C46.4776 13.5156 46.6272 13.6269 46.6646 13.5898C46.6895 13.565 46.5648 13.429 46.3903 13.3054L46.0537 13.0704L46.328 13.3672Z" fill="#322449"/>
<path d="M0.396129 7.29571C0.43335 7.35753 0.545013 7.41936 0.631862 7.41936C0.718711 7.41936 0.880002 7.60485 0.979258 7.83979L1.17777 8.24786L3.7088 8.33442C10.818 8.56936 17.1952 9.18764 23.2622 10.214C24.6394 10.4489 25.8429 10.6344 25.9298 10.6344C26.029 10.6344 26.0166 10.6839 25.8925 10.7581C25.7561 10.857 25.7933 10.8694 26.0414 10.8075C26.4881 10.7086 30.9174 11.6237 30.7065 11.772C30.5948 11.8462 30.6444 11.8586 30.8305 11.8091C31.2027 11.7102 32.5303 11.9946 32.3194 12.143C32.2201 12.2048 32.307 12.2172 32.5303 12.1801C33.0018 12.0936 34.0315 12.3903 33.9819 12.6005C33.9695 12.6871 34.0067 12.7242 34.0688 12.6747C34.2425 12.5758 34.9745 12.9591 34.8876 13.1075C34.8504 13.1694 34.8876 13.2559 34.9621 13.3054C35.0613 13.3548 35.0737 13.3425 35.0241 13.2559C34.9 13.0457 35.0985 13.0704 35.4211 13.3054C35.57 13.4043 35.6568 13.5527 35.6196 13.6269C35.57 13.7134 35.5948 13.7258 35.6693 13.6764C35.843 13.5651 36.3516 13.8247 36.2524 13.9731C36.2152 14.035 36.2524 14.1215 36.3268 14.171C36.4261 14.2328 36.4385 14.2081 36.3765 14.0968C36.3144 13.9979 36.3392 13.9608 36.4509 13.9979C36.5502 14.035 36.6246 14.1215 36.6246 14.1833C36.6246 14.2575 36.6742 14.3688 36.7363 14.4307C36.7983 14.4925 36.8107 14.4554 36.7487 14.3565C36.6866 14.2452 36.7114 14.2081 36.8231 14.2452C36.9224 14.2823 36.9968 14.3688 36.9968 14.443C36.9968 14.5048 37.0464 14.6161 37.1085 14.678C37.1705 14.7398 37.1829 14.7027 37.1209 14.6038C37.0588 14.4925 37.0837 14.4554 37.1953 14.4925C37.2946 14.5296 37.369 14.6161 37.369 14.6903C37.369 14.7522 37.4186 14.8634 37.4807 14.9253C37.5427 14.9871 37.5551 14.95 37.4931 14.8511C37.4311 14.7398 37.4559 14.7027 37.5675 14.7398C37.6668 14.7769 37.7412 14.8634 37.7412 14.9376C37.7412 14.9995 37.7909 15.1108 37.8529 15.1726C37.9149 15.2344 37.9273 15.1973 37.8653 15.0984C37.8033 14.9871 37.8281 14.95 37.9397 14.9871C38.039 15.0242 38.1134 15.1108 38.1134 15.185C38.1134 15.2468 38.1631 15.3581 38.2251 15.4199C38.2871 15.4817 38.2995 15.457 38.2499 15.3581C38.1258 15.1479 38.2747 15.1726 38.7462 15.4694C38.9819 15.6054 39.1432 15.7785 39.106 15.828C39.0688 15.8898 39.106 15.9764 39.1928 16.0258C39.2797 16.0753 39.3169 16.0753 39.2673 16.0134C39.2177 15.964 39.2425 15.8527 39.3417 15.7785C39.503 15.6548 41.1904 9.38549 41.0911 9.28657C41.0663 9.2742 40.4832 9.34839 39.8008 9.45968C39.1184 9.57097 38.436 9.6328 38.2747 9.58334C38.039 9.52151 38.0266 9.53388 38.1755 9.64517C38.3244 9.75646 38.2499 9.76882 37.8653 9.71936C37.5923 9.68226 37.4435 9.69463 37.5303 9.74409C37.7288 9.88011 34.8132 10.5479 34.503 10.4366C34.3293 10.3871 34.3045 10.3871 34.441 10.486C34.7015 10.6715 34.2549 10.7333 33.5477 10.585C33.1258 10.5108 32.9893 10.4366 33.1134 10.3624C33.2251 10.2882 33.1879 10.2758 33.0018 10.3253C32.8529 10.3624 31.5998 10.1769 30.2102 9.90485C22.1208 8.33442 14.1679 7.50592 5.483 7.35753C3.37381 7.32044 1.33906 7.25861 0.979258 7.23388C0.545013 7.18442 0.3465 7.20915 0.396129 7.29571Z" fill="#322449"/>
<path d="M7.44363 7.25841C7.55583 7.28341 7.7553 7.28341 7.87997 7.25841C7.99217 7.22091 7.89243 7.19591 7.65557 7.19591C7.4187 7.19591 7.31897 7.22091 7.44363 7.25841Z" fill="#322449"/>
<path d="M10.6075 7.38207C10.6823 7.40707 10.8319 7.40707 10.9192 7.38207C10.994 7.34457 10.9317 7.31957 10.7571 7.31957C10.5826 7.31957 10.5203 7.34457 10.6075 7.38207Z" fill="#322449"/>
<path d="M12.7169 7.50573C12.7917 7.53073 12.9413 7.53073 13.0286 7.50573C13.1034 7.46823 13.041 7.44323 12.8665 7.44323C12.692 7.44323 12.6296 7.46823 12.7169 7.50573Z" fill="#322449"/>
<path d="M14.3292 7.62938C14.404 7.65438 14.5536 7.65438 14.6409 7.62938C14.7157 7.59188 14.6533 7.56688 14.4788 7.56688C14.3043 7.56688 14.2419 7.59188 14.3292 7.62938Z" fill="#322449"/>
<path d="M15.8185 7.75304C15.8933 7.77804 16.0429 7.77804 16.1301 7.75304C16.2049 7.71554 16.1426 7.69054 15.9681 7.69054C15.7935 7.69054 15.7312 7.71554 15.8185 7.75304Z" fill="#322449"/>
<path d="M0.905093 8.22312C0.954959 8.32204 1.04223 8.4086 1.10456 8.4086C1.17936 8.4086 1.16689 8.33441 1.07963 8.22312C0.992359 8.12419 0.905093 8.03763 0.880159 8.03763C0.855226 8.03763 0.867693 8.12419 0.905093 8.22312Z" fill="#322449"/>
<path d="M1.73599 8.49498C1.98413 8.51998 2.40597 8.51998 2.66652 8.49498C2.91466 8.46998 2.70374 8.44498 2.19505 8.44498C1.68636 8.44498 1.47544 8.46998 1.73599 8.49498Z" fill="#322449"/>
<path d="M6.32657 8.61864C6.43877 8.64364 6.61331 8.64364 6.70057 8.61864C6.77537 8.58114 6.68811 8.55614 6.47617 8.55614C6.27671 8.55614 6.20191 8.58114 6.32657 8.61864Z" fill="#322449"/>
<path d="M8.74678 8.74249C8.83404 8.77959 8.94624 8.76722 8.98364 8.73013C9.03351 8.69303 8.95871 8.65593 8.82158 8.6683C8.68444 8.6683 8.64704 8.7054 8.74678 8.74249Z" fill="#322449"/>
<path d="M10.4213 8.86595C10.5335 8.89095 10.708 8.89095 10.7953 8.86595C10.8701 8.82845 10.7828 8.80345 10.5709 8.80345C10.3714 8.80345 10.2966 8.82845 10.4213 8.86595Z" fill="#322449"/>
<path d="M24.9997 8.86615C25.087 8.90325 25.1992 8.89088 25.2366 8.85379C25.2864 8.81669 25.2116 8.77959 25.0745 8.79196C24.9374 8.79196 24.9 8.82905 24.9997 8.86615Z" fill="#322449"/>
<path d="M11.9718 8.98961C12.0466 9.01461 12.1962 9.01461 12.2834 8.98961C12.3582 8.95211 12.2959 8.92711 12.1214 8.92711C11.9468 8.92711 11.8845 8.95211 11.9718 8.98961Z" fill="#322449"/>
<path d="M13.337 9.11324C13.4118 9.13824 13.5614 9.13824 13.6487 9.11324C13.7235 9.07574 13.6611 9.05074 13.4866 9.05074C13.3121 9.05074 13.2497 9.07574 13.337 9.11324Z" fill="#322449"/>
<path d="M20.5329 9.97907C20.6202 10.0162 20.7324 10.0038 20.7698 9.9667C20.8196 9.9296 20.7448 9.89251 20.6077 9.90487C20.4706 9.90487 20.4332 9.94197 20.5329 9.97907Z" fill="#322449"/>
<path d="M21.4011 10.1027C21.4883 10.1398 21.6005 10.1275 21.6379 10.0904C21.6878 10.0533 21.613 10.0162 21.4759 10.0285C21.3387 10.0285 21.3013 10.0656 21.4011 10.1027Z" fill="#322449"/>
<path d="M38.4238 15.5064C38.4238 15.5435 38.536 15.6301 38.6732 15.7043C38.8103 15.7785 38.9225 15.8032 38.9225 15.7785C38.9225 15.7414 38.8103 15.6548 38.6732 15.5806C38.536 15.5064 38.4238 15.4817 38.4238 15.5064Z" fill="#322449"/>
<path d="M60.1602 19.5995C60.1602 19.7973 60.1851 19.8715 60.2225 19.7479C60.2474 19.6366 60.2474 19.4635 60.2225 19.3769C60.1851 19.3027 60.1602 19.3893 60.1602 19.5995Z" fill="#322449"/>
<path d="M45.2471 19.7107C45.2471 19.7355 45.6193 20.0322 46.0907 20.3537C48.3116 21.9242 53.0263 25.5597 54.9121 27.1672C55.0858 27.3156 55.2967 27.4392 55.3712 27.4516C55.6069 27.4516 57.2198 25.9925 57.8278 25.2382C58.7707 24.0263 60.0238 21.4914 60.0114 20.7865C60.0114 20.6753 59.8625 20.9968 59.7012 21.4914C59.0685 23.3339 58.2 24.7064 56.7856 26.1037C56.2645 26.6231 55.7186 27.1054 55.5821 27.1796C55.3712 27.2908 55.1603 27.1672 54.0436 26.2521C52.2446 24.7683 49.3662 22.5548 47.2074 20.9844C45.4952 19.7478 45.2471 19.5871 45.2471 19.7107Z" fill="#322449"/>
<path d="M60.0239 20.3537C60.0239 20.4898 60.0613 20.5269 60.0987 20.4279C60.1361 20.3414 60.1237 20.2301 60.0863 20.193C60.0489 20.1435 60.0115 20.2177 60.0239 20.3537Z" fill="#322449"/>
<path d="M92.5807 21.8377C89.6403 26.0667 85.6452 31.0995 81.6253 35.6748L80.7568 36.664L81.5261 37.7769C81.9479 38.3828 82.5683 39.3226 82.8908 39.8543C83.2258 40.3861 83.5112 40.7941 83.5484 40.757C83.6104 40.6952 82.7668 39.2979 81.7742 37.8758C81.34 37.2452 80.9802 36.7011 80.9802 36.6764C80.9802 36.6516 81.6625 35.8479 82.5062 34.8957C84.3797 32.7689 86.1787 30.5925 88.1886 28.0081C90.8065 24.657 93.8462 20.4404 93.7346 20.3291C93.6973 20.3043 93.1887 20.9721 92.5807 21.8377Z" fill="#322449"/>
<path d="M64.5402 25.1269C62.3318 27.5753 59.8007 31.5941 58.4111 34.871C57.6419 36.7011 57.6047 36.4661 58.9074 38.222C61.2896 41.4124 64.8256 45.8145 64.9372 45.7032C64.9745 45.6785 64.4782 45.0231 63.833 44.2441C62.3318 42.4511 60.3466 39.9038 58.9571 38.0366L57.8652 36.5651L58.2747 35.5634C59.7263 32.0021 62.0588 28.2059 64.4534 25.4978C64.9 25.0032 65.2226 24.5704 65.1978 24.5333C65.1606 24.4962 64.8628 24.7683 64.5402 25.1269Z" fill="#322449"/>
<path d="M70.6816 28.0081C70.6816 28.0452 71.1283 28.6016 71.6742 29.2446C74.168 32.2124 77.5675 36.6393 79.8008 39.8543C80.3963 40.7199 80.9174 41.4 80.9546 41.3753C81.0911 41.2393 76.5253 34.9576 74.106 31.9651C72.6544 30.1473 70.7933 27.9463 70.7313 27.9463C70.7065 27.9463 70.6816 27.971 70.6816 28.0081Z" fill="#322449"/>
<path d="M78.3369 42.9828C75.4584 43.9721 72.2326 44.9366 68.92 45.8145C67.5304 46.1731 66.4758 46.4823 66.5626 46.4823C67.3194 46.5194 77.8158 43.4403 80.4213 42.4264C81.6992 41.9194 80.5949 42.2161 78.3369 42.9828Z" fill="#322449"/>
</svg>
